<?xml version="1.0" encoding="UTF-8" standalone="no"?>
<svg width="200px" height="23px" viewBox="0 0 200 23" version="1.1" xmlns="http://www.w3.org/2000/svg" xmlns:xlink="http://www.w3.org/1999/xlink">
    <!-- Generator: Sketch 39.1 (31720) - http://www.bohemiancoding.com/sketch -->
    <title>partners_sponsors_blc_title</title>
    <desc>Created with Sketch.</desc>
    <defs></defs>
    <g id="Partners" stroke="none" stroke-width="1" fill="none" fill-rule="evenodd">
        <g transform="translate(-920.000000, -807.000000)" id="partners_sponsors_blc_title">
            <g transform="translate(920.000000, 807.000000)">
                <g id="Layer_1">
                    <path d="M0.876828583,1.32118206 C1.7727609,1.09178828 3.25744874,0.964347289 4.69094044,0.964347289 C6.78998187,0.964347289 8.12108131,1.32118206 9.11940589,2.1622926 C9.96414207,2.79949755 10.4761034,3.79353728 10.4761034,5.11892358 C10.4761034,6.75016826 9.42658268,8.15201915 7.73711031,8.78922411 L7.73711031,8.8656887 C9.27299428,9.22252347 11.090457,10.5479098 11.090457,13.020265 C11.090457,14.4476041 10.5528976,15.5690848 9.70816141,16.3592189 C8.60744456,17.4042351 6.78998187,17.913999 4.12778299,17.913999 C2.69429128,17.913999 1.56797637,17.8120462 0.90242665,17.7100934 L0.876828583,1.32118206 L0.876828583,1.32118206 L0.876828583,1.32118206 Z M2.97587001,8.15201915 L4.8701269,8.15201915 C7.04596253,8.15201915 8.3514639,6.95407384 8.3514639,5.32282916 C8.3514639,3.38572611 6.94357026,2.59559197 4.84452884,2.59559197 C3.87180232,2.59559197 3.33424293,2.67205656 3.00146807,2.74852116 L3.00146807,8.15201915 L2.97587001,8.15201915 Z M2.97587001,16.1298252 C3.41103713,16.2062898 3.99979265,16.231778 4.74213657,16.231778 C6.89237413,16.231778 8.88902329,15.4161556 8.88902329,12.9947768 C8.88902329,10.7518154 6.9947664,9.75777563 4.71653851,9.75777563 L2.97587001,9.75777563 L2.97587001,16.1298252 L2.97587001,16.1298252 Z" id="Shape" fill="#042C8F"></path>
                    <path d="M16.1588741,2.41717458 C16.1588741,3.15633233 15.6469128,3.76804908 14.8277746,3.76804908 C14.0598327,3.76804908 13.5478713,3.18182052 13.5478713,2.41717458 C13.5478713,1.67801684 14.0854307,1.06630008 14.8789708,1.06630008 C15.6213147,1.04081188 16.1588741,1.62704044 16.1588741,2.41717458 L16.1588741,2.41717458 Z M13.8294501,17.7610698 L13.8294501,5.75612853 L15.9284915,5.75612853 L15.9284915,17.7610698 L13.8294501,17.7610698 L13.8294501,17.7610698 Z" id="Shape" fill="#042C8F"></path>
                    <path d="M19.4354265,0.174213148 L21.534468,0.174213148 L21.534468,7.69323159 L21.5856641,7.69323159 C22.328008,6.34235709 23.6847055,5.50124655 25.5533644,5.50124655 C28.4459458,5.50124655 30.4681931,7.97360177 30.4681931,11.5929259 C30.4681931,15.8749432 27.8315922,17.9904636 25.2205895,17.9904636 C23.5567152,17.9904636 22.2000177,17.3277705 21.3040854,15.7729904 L21.2528892,15.7729904 L21.150497,17.7355816 L19.3586323,17.7355816 C19.4098285,16.9199593 19.4354265,15.722014 19.4354265,14.6515097 L19.4354265,0.174213148 L19.4354265,0.174213148 L19.4354265,0.174213148 Z M21.4832718,12.9438004 C21.4832718,13.2241706 21.5088699,13.4790526 21.560066,13.7339345 C21.944037,15.2377382 23.1983423,16.2827543 24.7342262,16.2827543 C26.961258,16.2827543 28.2411613,14.4221159 28.2411613,11.6693905 C28.2411613,9.24801167 27.0380522,7.20895582 24.7598243,7.20895582 C23.3519307,7.20895582 22.0208312,8.25397195 21.560066,9.88521662 C21.4832718,10.1655868 21.4576738,10.445957 21.4576738,10.8027918 L21.4576738,12.9438004 L21.4832718,12.9438004 Z" id="Shape" fill="#042C8F"></path>
                    <polygon id="Shape" fill="#042C8F" points="33.0535977 0.174213148 35.1526392 0.174213148 35.1526392 17.7610698 33.0535977 17.7610698"></polygon>
                    <path d="M39.8882814,12.1536663 C39.9394775,15.1102972 41.7313422,16.3082425 43.8815797,16.3082425 C45.3918656,16.3082425 46.313396,16.0278724 47.081338,15.6965258 L47.465309,17.2767941 C46.7229651,17.6081406 45.4174637,18.04144 43.5744029,18.04144 C40.0162717,18.04144 37.8660342,15.594573 37.8660342,11.9752489 C37.8660342,8.35592474 39.9394775,5.55222295 43.2928242,5.55222295 C47.1069361,5.55222295 48.0796626,8.96764149 48.0796626,11.1596265 C48.0796626,11.6184141 48.0540645,11.9242725 48.0028684,12.1791545 L39.8882814,12.1536663 L39.8882814,12.1536663 L39.8882814,12.1536663 Z M46.0830134,10.6243744 C46.1086115,9.27349987 45.545454,7.10700303 43.1648339,7.10700303 C41.0145963,7.10700303 40.0930659,9.09508248 39.9394775,10.6243744 L46.0830134,10.6243744 L46.0830134,10.6243744 Z" id="Shape" fill="#042C8F"></path>
                    <polygon id="Shape" fill="#3F6F00" points="50.7162634 0.174213148 52.8153048 0.174213148 52.8153048 17.7610698 50.7162634 17.7610698"></polygon>
                    <path d="M57.5765451,12.1536663 C57.6277413,15.1102972 59.4196059,16.3082425 61.5698434,16.3082425 C63.0801293,16.3082425 64.0016597,16.0278724 64.7696017,15.6965258 L65.1535727,17.2767941 C64.4112288,17.6081406 63.1057274,18.04144 61.2626667,18.04144 C57.7045355,18.04144 55.5542979,15.594573 55.5542979,11.9752489 C55.5542979,8.35592474 57.6277413,5.55222295 60.9810879,5.55222295 C64.7951998,5.55222295 65.7679263,8.96764149 65.7679263,11.1596265 C65.7679263,11.6184141 65.7423282,11.9242725 65.6911321,12.1791545 L57.5765451,12.1536663 L57.5765451,12.1536663 L57.5765451,12.1536663 Z M63.7456791,10.6243744 C63.7712771,9.27349987 63.2081197,7.10700303 60.8274995,7.10700303 C58.677262,7.10700303 57.7557316,9.09508248 57.6021432,10.6243744 L63.7456791,10.6243744 L63.7456791,10.6243744 Z" id="Shape" fill="#3F6F00"></path>
                    <path d="M76.5447121,14.8809035 C76.5447121,15.9259196 76.5959083,16.9199593 76.7238986,17.7355816 L74.8296417,17.7355816 L74.6504553,16.231778 L74.5736611,16.231778 C73.9337094,17.1748413 72.6794042,18.0159518 71.0411279,18.0159518 C68.6861058,18.0159518 67.5085948,16.3082425 67.5085948,14.5750451 C67.5085948,11.6693905 69.9916072,10.0891222 74.4712688,10.1146104 L74.4712688,9.85972843 C74.4712688,8.8911769 74.2152881,7.08151483 71.834668,7.10700303 C70.7339511,7.10700303 69.6076362,7.41286141 68.7884981,7.99908997 L68.2765368,6.54626267 C69.2492633,5.93454592 70.6571569,5.50124655 72.1162467,5.50124655 C75.6487798,5.50124655 76.5447121,7.99908997 76.5447121,10.3949806 L76.5447121,14.8809035 L76.5447121,14.8809035 Z M74.4968669,11.6439023 C72.1930409,11.5929259 69.5820382,12.0007371 69.5820382,14.3456513 C69.5820382,15.7729904 70.4779705,16.4356835 71.5274912,16.4356835 C73.0633752,16.4356835 74.0361017,15.4416438 74.3944746,14.4476041 C74.4712688,14.1927221 74.4712688,13.9378401 74.4712688,13.7339345 L74.4712688,11.6439023 L74.4968669,11.6439023 L74.4968669,11.6439023 Z" id="Shape" fill="#3F6F00"></path>
                    <path d="M89.8813046,16.0023842 C89.8813046,18.7805978 89.3437452,20.4373306 88.2430284,21.507835 C87.0911154,22.5783393 85.4784372,22.9351741 83.9937494,22.9351741 C82.6114538,22.9351741 81.0755699,22.6038275 80.1540395,21.9411343 L80.6915989,20.2589133 C81.4595409,20.7941654 82.6370519,21.2274648 84.0961417,21.2274648 C86.2463792,21.2274648 87.8334593,20.0804959 87.8334593,17.0219121 L87.8334593,15.6965258 L87.7822632,15.6965258 C87.1679096,16.8180065 85.8880063,17.6846052 84.0961417,17.6846052 C81.2035602,17.6846052 79.1557149,15.1612736 79.1557149,11.8478079 C79.1557149,7.76969618 81.7411196,5.50124655 84.4033185,5.50124655 C86.4255657,5.50124655 87.5006845,6.57175087 88.0382439,7.5403024 L88.08944,7.5403024 L88.1662342,5.73064033 L90.034893,5.73064033 C89.9580988,6.57175087 89.9580988,7.5657906 89.9580988,8.99312969 L89.8813046,16.0023842 L89.8813046,16.0023842 L89.8813046,16.0023842 Z M87.7566651,10.4969334 C87.7566651,10.1400986 87.7310671,9.78326383 87.6542729,9.52838185 C87.2703019,8.22848375 86.2719773,7.20895582 84.7104953,7.20895582 C82.688248,7.20895582 81.2547563,8.96764149 81.2547563,11.7203669 C81.2547563,14.0907693 82.4322674,16.0278724 84.6848972,16.0278724 C86.0159966,16.0278724 87.1679096,15.1867618 87.6030767,13.8103991 C87.705469,13.4535644 87.7822632,13.020265 87.7822632,12.6634302 L87.7566651,10.4969334 L87.7566651,10.4969334 L87.7566651,10.4969334 Z" id="Shape" fill="#3F6F00"></path>
                    <path d="M103.064309,14.4730923 C103.064309,15.7475022 103.089907,16.8434947 103.141103,17.7610698 L101.272444,17.7610698 L101.170052,15.7984786 L101.118856,15.7984786 C100.581296,16.7670301 99.326991,18.0159518 97.2791457,18.0159518 C95.461683,18.0159518 93.2858474,16.9454475 93.2858474,12.765383 L93.2858474,5.80710493 L95.3848888,5.80710493 L95.3848888,12.4085482 C95.3848888,14.6769979 96.0760366,16.2572662 97.9702935,16.2572662 C99.3781872,16.2572662 100.376512,15.2377382 100.734885,14.2691867 C100.837277,13.9633283 100.939669,13.5555172 100.939669,13.147706 L100.939669,5.80710493 L103.038711,5.80710493 L103.064309,14.4730923 L103.064309,14.4730923 L103.064309,14.4730923 Z" id="Shape" fill="#3F6F00"></path>
                    <path d="M107.748755,12.1536663 C107.799951,15.1102972 109.591816,16.3082425 111.742053,16.3082425 C113.252339,16.3082425 114.173869,16.0278724 114.941811,15.6965258 L115.325782,17.2767941 C114.583438,17.6081406 113.277937,18.04144 111.434876,18.04144 C107.876745,18.04144 105.726508,15.594573 105.726508,11.9752489 C105.726508,8.35592474 107.799951,5.55222295 111.153298,5.55222295 C114.967409,5.55222295 115.940136,8.96764149 115.940136,11.1596265 C115.940136,11.6184141 115.914538,11.9242725 115.863342,12.1791545 L107.748755,12.1536663 L107.748755,12.1536663 L107.748755,12.1536663 Z M113.917889,10.6243744 C113.943487,9.27349987 113.380329,7.10700303 110.999709,7.10700303 C108.849472,7.10700303 107.927941,9.09508248 107.774353,10.6243744 L113.917889,10.6243744 L113.917889,10.6243744 Z" id="Shape" fill="#3F6F00"></path>
                    <g id="Canada" transform="translate(123.276716, 0.000000)" fill="#042B8F">
                        <path d="M12.7691148,17.8846671 C11.9999822,18.3280432 10.3807557,18.7311124 8.31624186,18.7311124 C3.53952366,18.7311124 0.0177059955,15.6274797 0.0177059955,9.90389738 C0.0177059955,4.42215654 3.62048498,0.754227008 8.80200981,0.754227008 C10.9070043,0.754227008 12.2428661,1.23791002 12.8095954,1.56036537 L12.2428661,3.37417667 C11.4332529,2.93080058 10.2593137,2.64865215 8.88297114,2.64865215 C4.91586619,2.64865215 2.32510377,5.26860182 2.32510377,9.82328354 C2.32510377,14.1361238 4.67298221,16.8366873 8.80200981,16.8366873 C10.1783523,16.8366873 11.5142142,16.5545388 12.4047888,16.1111627 L12.7691148,17.8846671 L12.7691148,17.8846671 Z" id="Shape"></path>
                        <path d="M23.779855,15.4662521 C23.779855,16.5545388 23.8203357,17.6025187 23.9417777,18.4892709 L21.9582252,18.4892709 L21.7963026,16.9173011 L21.7153412,16.9173011 C21.0676506,17.8846671 19.7317888,18.7714193 17.9911203,18.7714193 C15.5217998,18.7714193 14.2668993,16.957608 14.2668993,15.1841036 C14.2668993,12.1610848 16.8576617,10.5085011 21.5534186,10.5085011 L21.5534186,10.2666596 C21.5534186,9.25898669 21.2700539,7.36456155 18.8007335,7.40486847 C17.667275,7.40486847 16.4528551,7.72732381 15.6432418,8.33192758 L15.1574739,6.84057162 C16.1694904,6.19566093 17.6267943,5.75228483 19.1650595,5.75228483 C22.8892805,5.75228483 23.7393744,8.3722345 23.7393744,10.8712634 L23.779855,15.4662521 L23.779855,15.4662521 L23.779855,15.4662521 Z M21.6748606,12.0804709 C19.2865015,12.040164 16.5338164,12.4835401 16.5338164,14.9019552 C16.5338164,16.3933112 17.4648716,17.0382219 18.5983302,17.0382219 C20.2175567,17.0382219 21.2295733,15.990242 21.5938992,14.9422621 C21.6748606,14.7004206 21.7153412,14.4585791 21.7153412,14.2167376 L21.7153412,12.0804709 L21.6748606,12.0804709 Z" id="Shape"></path>
                        <path d="M27.3421534,9.29929361 C27.3421534,7.96916532 27.3016727,6.92118545 27.2207114,5.9135125 L29.1637832,5.9135125 L29.2852252,8.00947224 L29.3257058,8.00947224 C29.9329158,6.84057162 31.349739,5.671671 33.3332914,5.671671 C34.9929986,5.671671 37.6242417,6.71965086 37.6242417,10.9921842 L37.6242417,18.448964 L35.4382859,18.448964 L35.4382859,11.2340257 C35.4382859,9.21867977 34.709634,7.52578922 32.6046395,7.52578922 C31.1878163,7.52578922 30.0543578,8.614076 29.6495511,9.86359046 C29.5281091,10.1457389 29.5281091,10.5488081 29.5281091,10.9518772 L29.5281091,18.4892709 L27.3421534,18.4892709 L27.3421534,9.29929361 L27.3421534,9.29929361 L27.3421534,9.29929361 Z" id="Shape"></path>
                        <path d="M49.7684405,15.4662521 C49.7684405,16.5545388 49.8089212,17.6025187 49.9303632,18.4892709 L47.9468107,18.4892709 L47.7848881,16.9173011 L47.7039267,16.9173011 C47.0562361,17.8846671 45.7203743,18.7714193 43.9797058,18.7714193 C41.5103853,18.7714193 40.2554848,16.957608 40.2554848,15.1841036 C40.2554848,12.1610848 42.8462472,10.5085011 47.5420041,10.5085011 L47.5420041,10.2666596 C47.5420041,9.25898669 47.2586394,7.36456155 44.789319,7.40486847 C43.6558605,7.40486847 42.4414406,7.72732381 41.6318273,8.33192758 L41.1460594,6.84057162 C42.1580759,6.19566093 43.6153798,5.75228483 45.153645,5.75228483 C48.8778659,5.75228483 49.7279599,8.3722345 49.7279599,10.8712634 L49.7279599,15.4662521 L49.7684405,15.4662521 Z M47.6634461,12.0804709 C45.275087,12.040164 42.5224019,12.4835401 42.5224019,14.9019552 C42.5224019,16.3933112 43.4534571,17.0382219 44.5869157,17.0382219 C46.2061422,17.0382219 47.2181588,15.990242 47.5824847,14.9422621 C47.6634461,14.7004206 47.7039267,14.4585791 47.7039267,14.2167376 L47.7039267,12.0804709 L47.6634461,12.0804709 Z" id="Shape"></path>
                        <path d="M63.7342692,0.0690094033 L63.7342692,15.1841036 C63.7342692,16.3126973 63.7747498,17.5622118 63.8557112,18.4086571 L61.9126394,18.4086571 L61.7911974,16.2723904 L61.7507167,16.2723904 C61.1030261,17.6831325 59.6457222,18.7311124 57.6621698,18.7311124 C54.7475621,18.7311124 52.4401643,16.1917766 52.4401643,12.3626194 C52.3996836,8.21100682 54.9499654,5.671671 57.8645731,5.671671 C59.7266836,5.671671 60.9411035,6.55842319 61.5078327,7.56609614 L61.5483134,7.56609614 L61.5483134,0.109316321 L63.7342692,0.0690094033 L63.7342692,0.0690094033 L63.7342692,0.0690094033 Z M61.5887941,11.0324911 C61.5887941,10.7503427 61.5483134,10.3472735 61.4673521,10.065125 C61.1435068,8.614076 59.9290869,7.44517538 58.3098604,7.44517538 C56.0024626,7.44517538 54.7070814,9.54113512 54.7070814,12.2416986 C54.7070814,14.7810344 55.9215013,16.8769942 58.3098604,16.8769942 C59.7671642,16.8769942 61.1435068,15.8290143 61.5483134,14.1361238 C61.6292747,13.8136684 61.6697554,13.53152 61.6697554,13.1687577 L61.5887941,11.0324911 L61.5887941,11.0324911 L61.5887941,11.0324911 Z" id="Shape"></path>
                        <path d="M75.9594293,15.4662521 C75.9594293,16.5545388 75.99991,17.6025187 76.121352,18.4892709 L74.1377995,18.4892709 L73.9758769,16.9173011 L73.8949155,16.9173011 C73.2472249,17.8846671 71.9113631,18.7714193 70.1706946,18.7714193 C67.7013741,18.7714193 66.4464736,16.957608 66.4464736,15.1841036 C66.4464736,12.1610848 69.037236,10.5085011 73.7329929,10.5085011 L73.7329929,10.2666596 C73.7329929,9.25898669 73.4496282,7.36456155 70.9803078,7.40486847 C69.8468493,7.40486847 68.6324294,7.72732381 67.8228161,8.33192758 L67.3370482,6.84057162 C68.3490647,6.19566093 69.8063686,5.75228483 71.3446338,5.75228483 C75.0688548,5.75228483 75.9189487,8.3722345 75.9189487,10.8712634 L75.9189487,15.4662521 L75.9594293,15.4662521 L75.9594293,15.4662521 Z M73.8544349,12.0804709 C71.4660758,12.040164 68.7133907,12.4835401 68.7133907,14.9019552 C68.7133907,16.3933112 69.6444459,17.0382219 70.7779045,17.0382219 C72.397131,17.0382219 73.4091476,15.990242 73.7734735,14.9422621 C73.8544349,14.7004206 73.8949155,14.4585791 73.8949155,14.2167376 L73.8949155,12.0804709 L73.8544349,12.0804709 Z" id="Shape"></path>
                    </g>
                </g>
            </g>
        </g>
    </g>
</svg>