<svg viewBox="0 0 196 60" xmlns="http://www.w3.org/2000/svg">
  <g fill="none" fill-rule="evenodd">
    <path d="M69.4.8v7.4c0 .5.2.7.7.7 1.6-.2 3 0 4.6 0 .4 0 .6 0 .6.5 0 1.6 0 1.6-1.6 1.6-1 0-2.3.2-3.4 0-.6 0-.8.3-.8 1V58c0 .8 0 1-.8 1-1.5 0-1.3.2-1.3-1.2V12c0-.6 0-1-.8-1-1.4.2-2.8 0-4.2 0-.6 0-.7 0-.7-.5C61.6 9 61.6 9 63 9h3.7c.5 0 .6-.3.6-.8V.8h2zM12 31.3c0 1.4-.5 2.8-.7 4.2-1 4.6-2 9.2-2.8 13.7-.5 2.5-1 5-1.7 7.6l-.4 1.8c0 .4-.2.6-.7.5l-5-1c-.5-.2-.7-.4-.5-1l4.4-20.5 1.4-7v-.2c.8 0 1.3-.4 1.7-1 .5-.7 1.4-.8 2-.2.5.5.8 1 1 1.5.5.5.6 1.2 1.2 1.5v.3zM61.7 46v3.2c-.4-.4-.5-1-.8-1.4-.2-.2-.3-.4-.6-.4-.4 0-.2.4-.2.6 0 0 0 .3-.2.3h-.4c0-.3-.2-.4-.3-.5-.6-1-1-1-1.7-.2-.5.4-.6 1-1.3 1.3-.7 0-1 .6-1 1.2v2c0 .5.5.8 1 .6.4 0 .7-.2 1-.4.8-.4 1.6-.3 2.2.4.6.8 1.2 1 2.2.6v4.8c0 .6 0 .8-.8.8h-7.3c-.5 0-.7-.2-.7-.8V44.8l.2.2s.3.4.5.2c.3-.2.2-.5 0-.7l-.7-1v-.3c.2 0 .4.2.6 0 .2-.3.2-.5 0-.7-.2-.4-.3-.8-.6-1v-.8h.3c.4.4.5.4.6-.2v-1c0-.6 0-1.3.5-1.4 1 0 1.4-1 2-1.5.4-.4.5-.8 0-1.3 0-.3-.4-.5-.6-1-.3-.3-.5-.8 0-1 .7-.5 1 0 1 .3.3.3.5.5.6.8 0 0 0 .2.3.2v-.3c0-1 0-1.7 1.2-2 .5-.3.5-1 .7-1.6 0-.5 0-.8-.3-1.2-.4-.3-.3-.6 0-.8.7-.3 1.3-.5 2-.5v18c-.4-.5-.6-1.2-1.3-1.3-.6 0-1-.2-1.5-.6h-.6c-.2 0 0 .3 0 .4l.7 1c.7.5 2 1 2.7.7zM56 42.8c0-.3 0-.6-.3-.5-.6.2-.8.7-1 1.3 0 .5 0 .8.5 1 .2.2.3.2.4 0l.5-1.8z" fill="#CCC"/>
    <path d="M36.3 32.3v-2.7c.7-.3 1.5-.4 2.2-.4.8 0 1-.4.8-1.2v-1-.6c-.4 0-.6 0-.7.2-.3.2-.5.5-.5.8 0 1 0 1-1 1-.2 0-.5 0-.7-.2v-1.4c.5-.3 1-.6 1.3-1 1.2-.8 2.4-1.2 3.8-.4.3.2.6.3 0 .6v.5c.2.2.4.2.5.2l.7-.3c.6-.2 1.3-.6 2-.5v10c-.4-.4-.8-.5-1 0-.4.5 0 .7.3 1 0 .2.4.3.6.4.3.5 0 1 0 1.6-.2 0-.4.3-.6.5-.8 1-.8 1-1.4 0l-.6-1.2c0-.4-.3-.8-.5-1.2L41 37v.5c0 1.6.5 3 2 3.6 1 .4 1 .7.4 1.5-.8 1-1.4 2-1.2 3.5 0 .8 0 1.5-.3 2.3-.6 1.5-1.3 3-2.3 4.2-.3.3-.6.8-1 .7-.6 0-.6-.7-.8-1v-.4c-.4-1.6-.2-3.2-.2-5 0-.4 0-1-.5-1.4-.3-.4-.5-1-.6-1.6 0-.4 0-1-.4-1.3V34c.5 0 .7 0 1 .4 0 .3.3.6.6.7 1 .5 2 .5 3 .2.3-.2.6-.3.6-.7 0-.3 0-.5-.4-.7-.6-.3-1-.7-1.8-.6-.3 0-.5 0-.6-.4l-1-1c0-.2-.3-.2-.5 0-.2 0 0 .2 0 .4l.4.7s.2.4 0 .5c-.3.2-.5 0-.6-.3-.2-.3-.2-.8-.7-1z" fill="#EEE"/>
    <path d="M34.3 42v16.2c0 .6-.2.8-.8.8H31c-.3 0-.5-.2-.4-.6V25.2c.4-.2.7-.5.8-1 .2-.3 0-.6.2-1 0-1 0-1-1-1.3V19c0-.6.2-.8.7-1 .7-.2 1.5-.2 2.3 0 .5.2.8.4.8 1v13c-.5 0-1 0-1 .8 0 .6.3 1 1 1v.6c-1 .2-1.7 1-2 1.8-.4 1-.6 2.3-.6 3.5 0 .7.4 1.2 1 1.6.5.2 1 .4 1.5.4zM21.6 41v-8h.3c.4-.6 1-1.3 1.8-1.4 0 0 .4-.2.3-.4 0-.3-.2-.3-.5-.3s-.6.2-1 0c.5-.5 1.2-.7 2-.8 0 0 .4 0 .4-.5 0-.4-.7-1.7-1-2-.3 0-.5 0-.8.2-.2 0-.5 0-.7-.2-.2-.5-.6-.6-1-.6V24c0-.8 0-1 .8-1.3l.8-.2c0 .2 0 .3-.2.3s-.5 0-.5.4c0 .2.3.2.5.2l1.8.3c1 .2 1.4.8 1.2 1.8v.8c0 1 .8 1.4 1.7.8l1-.8v19.3c-1-.8-2-1.6-3-2.7-.8-1.3-2-2.5-4-2zM36.3 42.4c.4.4.4 1 .4 1.4 0 .6.2 1 .6 1.6.4.4.4 1 .5 1.5 0 1.5-.2 3.2 0 4.8v.2c.3.4.3 1 .8 1 .5.2.8-.3 1-.6 1-1.2 1.8-2.6 2.3-4 .2-1 .3-1.7.2-2.5-.2-1.4.4-2.5 1-3.5.8-1 .8-1-.2-1.6-1.6-.8-2-2.2-2-3.7v-.5c.3 0 .4.2.5.3 0 .5.3 1 .5 1.3 0 .4.3.7.5 1 .7 1 .7 1 1.5.2l.7-.6V58c0 .6 0 .8-.7.8h-7c-.5 0-.7-.2-.7-.7v-16zm6.6 7.3v.3s-.2.3 0 .4c.2 0 .3 0 .4-.3.5-.5.8-1.2.8-2 0-.3-.2-.5-.5-.6-.3 0-.4.2-.5.4 0 .6-.3 1.2-.3 2zM51 38V58c0 .6 0 .8-.7.8h-3c-.4 0-.6-.2-.6-.8V37c.5.4.7.8 1 1.3 0 1 .4 1.7.6 2.5 0 .2 0 .6.5.6.3 0 .3-.3.4-.6.4-1 1-2 1.8-3z" fill="#CCC"/>
    <path d="M61.7 28c-.7 0-1.3.3-2 .6-.3.2-.4.4 0 .7.5.4.5.8.2 1.3s-.3 1.2-.8 1.4c-1 .4-1 1.2-1 2 0 .3-.2.4-.3.4-.2 0-.3 0-.4-.2l-.4-.7c-.3-.3-.5-1-1-.5-.7.3-.5.8-.2 1.2 0 .4.4.6.6 1 .4.4.4.8 0 1.2-.7.6-1 1.4-2 1.6-.6.2-.5 1-.6 1.3v1c0 .7-.3.8-.7.4H53V23.3l1.8-.2c.4 0 .7.2.3.7 0 0-.2 0 0 .2 0 .2.2.2.4.2.6 0 1.3-.2 2 0 .8.5 1.8.4 2.7.3.7 0 1.2-.3 1.7 0V28z" fill="#EEE"/>
    <path d="M61.7 24.7c-.5-.3-1 0-1.6 0-.8.2-1.8.2-2.7-.2-.6-.3-1.3 0-2 0 0 0-.3 0-.4-.2-.2-.3 0-.3 0-.4.4-.6.2-.7-.3-.7H53V17c0-.4 0-.7.6-.8 2.6-1 5-1 7.7 0 .4.2.4.5.4 1v7.5z" fill="#CCC"/>
    <path d="M21.6 41c2-.7 3 .5 4 1.8 1 1.2 2 2 3 2.7V47c-.4 1-1 2-1.6 2.8-.8 1.2-1.4 2.6-2.3 3.7-.8 1-1.2 1.8-1.3 3 0 .6 0 1.3-.4 2-.8-1.2-1-2.3-1-3.6-.2-1.8.2-3.4.5-5 .2-1 0-1.8-1-2.3V41z" fill="#EEE"/>
    <path d="M19.3 40.5c.2 2 .2 4.2.2 6.4v11c0 1 0 1-1 .8h-1.3c-.6 0-1 0-.8-.8V39l.6.2c.5.6 1 .6 1.5.7h.3c0 .2.2.4.5.5z" fill="#CCC"/>
    <path d="M51 38c-1 .7-1.4 1.7-1.8 2.8 0 .3 0 .6-.4.6s-.4-.3-.5-.6l-.7-2.5c-.2-.5-.4-1-1-1.2v-9.6c0-.5.2-.8.8-1h3c.5.2.7.5.7 1v10.5z" fill="#EEE"/>
    <path d="M21.6 47.7c.8.5 1 1.3 1 2.2-.5 1.6-.8 3.2-.8 5 0 1.2.4 2.3 1.2 3.4.4-.6.3-1.3.4-2 0-1 .4-2 1.3-3 1-1 1.5-2.4 2.3-3.6l1.6-2.7v11.2c0 .5 0 .8-.7.7h-6c-.5 0-.6-.2-.6-.7.3-3.5 0-7 .2-10.6zM44.7 25.8c-.7 0-1.4.3-2 .5-.3 0-.5.2-.8.3-.3 0-.5 0-.6-.2V26c.5-.4.2-.5 0-.6-1.4-.8-2.6-.4-3.8.4-.4.3-1 .6-1.3 1v-5.2c0-.5 0-.8.6-1 2.3-.8 4.6-.7 7 0 .5.2.7.5.7 1V26z" fill="#CCC"/>
    <path d="M18.8 40h-.3c-.4-.6-1-.5-1.4-.7-.4-.6-.5-1-.6-1.6V33c-.2-2.4 0-5-.2-7.3l.5-.2c.7.3 1 0 1-.7 0-.3.2-.7.5-.7.4 0 .4.6.5.8.2.4.2.8.7.7v1c-1 .4-1.3 1.3-.5 2 0 .3.3.4.4.6v6.7c-.8 0-1.5.6-1.7 1.4-.2.7 0 1 .5 1.4.4.2.8.3 1 .7v.8H19z" fill="#EEE"/>
    <path d="M19.5 25.5c-.5 0-.6-.3-.8-.7 0-.2 0-.7-.4-.7s-.5.6-.5.8c0 .6-.4 1-1 .7-.2 0-.4 0-.6.2v-11c0-.7.2-1 .8-1.2h1.4c.8 0 1 .4 1 1v11zM7 24.7l1-4.3c0-.6.6-.6 1-.6 1.7-.2 3.3 0 4.6 1 .5.3.8.7.5 1.4l-.6 3h-1c-1.8-.2-3.5-.5-5.3-.5z" fill="#CCC"/>
    <path d="M61.7 53.5c-1 .3-1.6 0-2.2-.6-.6-1-1.4-1-2.2-.6l-1 .4c-.5.2-1 0-1-.7v-1.8c0-.5.3-1 1-1.3.7-.2.8-1 1.3-1.3.8-.8 1-.8 1.7 0 0 .2.2.4.3.5 0 0 .3.2.4 0 .2 0 0 0 .2-.2 0-.2-.2-.5.2-.6.3 0 .4.2.5.4l.7 1.4v4.3zM13 27.5v.3c-.3 0-.4 0 0 .4v.3c-.4 0-.4.2-.4.4v.2c-.2 0-.2 0 0 .2v.3c-.3 0-.3.2-.3.4v.4s-.3 0-.4.2l-1.5-2.3c-1-1.4-2.5-1.2-3.3 0-.2.4-.6.6-1 .4 0-.5 0-1 .2-1.5.2 0 .3 0 .3-.3 0-.8 0-1.4.3-2h1c1.6 0 3.2.3 4.8.5.4 0 .3.3.3.5v1.4zM28.6 26.2l-1 1c-1 .6-1.7.2-1.8-.8v-1c.3-1 0-1.5-1.2-1.7l-1.8-.3c-.2 0-.4 0-.4-.2 0-.3.2-.3.4-.4.2 0 .3 0 .3-.2 1.8-.6 3.5-.3 5 .3.5 0 .6.2.6.6v2.6zM34.3 42c-.5 0-1 0-1.5-.4-.6-.4-1-1-1-1.7 0-1.3.2-2.5.6-3.6.3-1 1-1.6 2-1.8V42zM21.4 27.2c.5 0 1 .2 1 .6.3.3.6.3.8 0 .3-.2.5-.2.8 0 .3.2 1 1.5 1 2 0 .3-.3.3-.6.4-.7 0-1.4.3-2 1 .5 0 .8-.3 1-.3.4 0 .6 0 .7.2.2.2 0 .4-.2.4-1 0-1.3.8-2 1.3h-.2l-.2-5.8z" fill="#EEE"/>
    <path d="M36.3 32.3c.5 0 .5.6.7 1 .2 0 .4.3.6.2.2-.2 0-.4 0-.7l-.3-.7s-.3-.2 0-.4h.5c.3.5.7.7 1 1 0 .4.3.5.6.5.7 0 1.2.4 1.7.7.4.2.6.4.6.8 0 .3-.3.5-.6.6-1 .5-2 .4-3 0-.5 0-.7-.3-1-.6 0-.3-.3-.6-.7-.6v-1.5zM36.3 28.2h.7c1 .3 1 0 1-.8l.6-1h.6c.2 0 0 .3 0 .5v1c.4.8 0 1-.7 1.2-.7 0-1.5 0-2.2.4v-1.4z" fill="#CCC"/>
    <path d="M19.2 39c-.2-.4-.6-.4-1-.6-.6-.3-.7-.8-.5-1.4.2-.8 1-1.3 1.8-1.4V39h-.3z" fill="#DFE9F4"/>
    <path d="M61.7 46c-.7.3-2 0-2.6-.7 0-.3-.3-.6-.5-1 0 0-.2-.3 0-.4 0-.2.3 0 .4 0 .3.4.8.6 1.4.7.7 0 1 .7 1.3 1v.4zM30.6 22c1 0 1 0 1 1.2 0 .4 0 .8-.2 1 0 .5-.4 1-.8 1v-3.3z" fill="#EEE"/>
    <path d="M6.2 28.8c.5.2.8 0 1-.5.8-1.2 2.3-1.3 3.3 0l1.4 2.3v.4c-.6-.3-.8-1-1-1.5L9.7 28c-.7-.5-1.6-.4-2 .4-.5.5-1 1-1.6 1v-.6zM13 26c0-.2.2-.5-.2-.5-1.6 0-3.2-.4-4.7-.5H7v-.3c2 0 3.6.3 5.4.5h1c0 .3.3.7-.3 1z" fill="#E3F0E7"/>
    <path d="M19.5 29c-.2 0-.4-.2-.5-.4-1-1-.7-1.7.5-2V29zM44.6 37.4c-.2 0-.5-.3-.6-.4-.3-.3-.7-.6-.4-1 .3-.5.7-.5 1-.2 0 .5.2 1 0 1.6z" fill="#DDE7F5"/>
    <path d="M34.3 34c-.6 0-.8-.4-.8-1 0-.7.4-.7.8-.7V34zM53 41.3l.6 1c.2.4.2.6 0 .8-.2.4-.4 0-.6 0v-1.7zM53 43.6l.7 1c.2 0 .3.4 0 .6-.2.2-.4 0-.5-.3l-.2-.2v-1.2z" fill="#EEE"/>
    <path d="M16.4 37.7c0 .5.2 1 .5 1.5h-.6c-.2-.6-.2-1 0-1.5zM18.8 40c.2 0 .4 0 .5-.2.2.2.2.4 0 .7-.3 0-.5-.3-.5-.6zM12 31v-.4h.3c.2.3 0 .5-.3.7V31zM12.3 30.2c0-.2 0-.4.5-.5 0 .3 0 .5-.5.5z" fill="#F2F8EC"/>
    <path d="M7 27c0 .3-.2.4-.6.4 0-.3.2-.4.5-.5z" fill="#E3F0E7"/>
    <path d="M13 27.7c-.2-.2-.2-.3 0-.5.5.2.5.4 0 .5zM12.7 29.7c-.3-.2-.3-.4 0-.5.4 0 .4.3 0 .5z" fill="#F2F8EC"/>
    <path d="M56 42.7c0 .6-.2 1.2-.4 1.8 0 .2-.2.2-.4 0-.3-.2-.6-.5-.5-1 .2-.6.4-1 1-1.3.3 0 .4.2.4.5zM43 49.7c0-.6 0-1.3.3-2 0 0 0-.3.5-.3.2 0 .4.3.4.6 0 .8-.3 1.5-.7 2.2 0 0-.3.3-.5.2V50v-.3z" fill="#EEE"/>
    <path d="M17 39.3c.6.2 1 0 1.5.6-.5-.2-1-.2-1.4-.7z" fill="#F2F8EC"/>
    <g>
      <path d="M71.7 16.4H197v47.4H71.7z"/>
      <path d="M73.6 17.5c1-.2 2.5-.4 4-.4 2.3 0 3.7.5 4.8 1.4.8.6 1.4 1.7 1.4 3 0 1.7-1 3-3 3.8 1.7.4 3.6 1.8 3.6 4.3 0 1.5-.5 2.7-1.4 3.5-1.2 1-3 1.6-6 1.6-1.5 0-2.6 0-3.4-.2v-17zm2.2 7h2c2.4 0 3.7-1.2 3.7-3S80 19 77.8 19c-1 0-1.6 0-2 .2v5.6zm0 8.2h2c2.2 0 4.3-.7 4.3-3.2 0-2.3-2-3.3-4.3-3.3h-2v6.5zM89.8 18.6c0 .8-.5 1.4-1.4 1.4-.8 0-1.3-.6-1.3-1.4 0-.7.6-1.4 1.5-1.4.8 0 1.3.6 1.3 1.4zm-2.5 15.8V22h2.3v12.4h-2.3zM93.3 16.3h2.2V24c1-1.3 2.3-2.2 4.3-2.2 3 0 5.2 2.6 5.2 6.3 0 4.5-2.8 6.7-5.5 6.7-1.8 0-3.2-.7-4.2-2.3v2h-2V16.2zm2.2 13.2v.8C96 32 97.4 33 99 33c2.3 0 3.7-2 3.7-4.8 0-2.5-1.3-4.6-3.7-4.6-1.5 0-3 1-3.4 2.8v3zM107.8 16.3h2.2v18h-2.2M115 28.7c0 3 2 4.3 4.3 4.3 1.6 0 2.6-.3 3.4-.7l.4 1.6c-.7.3-2 .7-4 .7-3.8 0-6-2.5-6-6.2 0-3.8 2-6.6 5.7-6.6 4 0 5 3.4 5 5.7v1H115zm6.6-1.6c0-1.3-.6-3.5-3-3.5s-3.4 2-3.5 3.6h6.6zM126.5 16.3h2.3v18h-2.3M133.8 28.7c0 3 2 4.3 4.2 4.3 1.6 0 2.6-.3 3.5-.7l.4 1.6c-1 .3-2.3.7-4.2.7-3.8 0-6-2.5-6-6.2 0-3.8 2-6.6 5.7-6.6 4 0 5 3.4 5 5.7v1h-8.7zm6.6-1.6c0-1.3-.6-3.5-3-3.5s-3.4 2-3.6 3.6h6.6zM154 31.5v3h-2v-1.6c-.8 1-2 1.7-4 1.7-2.4 0-3.7-1.7-3.7-3.5 0-3 2.7-4.6 7.5-4.6v-.3c0-1-.3-2.8-3-2.8-1 0-2.2.3-3 1l-.6-1.6c1-.7 2.5-1.2 4-1.2 3.8 0 4.8 2.6 4.8 5v4.7zm-2.2-3.4c-2.4 0-5.2.5-5.2 3 0 1.4 1 2 2 2 1.7 0 2.7-1 3-2 .2-.3.2-.5.2-.7V28zM168 32.6c0 3-.4 4.6-1.6 5.7-1.2 1-3 1.4-4.5 1.4-1.6 0-3.2-.3-4.2-1l.5-1.7c1 .5 2 1 3.6 1 2.2 0 4-1.2 4-4.4v-1.3c-.8 1-2 2-4 2-3 0-5.3-2.6-5.3-6 0-4 2.7-6.5 5.6-6.5 2 0 3.3 1 3.8 2h.2v-1.7h2v10.6zm-2-5.6c0-.4 0-.7-.2-1-.4-1.3-1.5-2.4-3.2-2.4-2 0-3.6 1.8-3.6 4.6 0 2.5 1.3 4.5 3.6 4.5 1.4 0 2.7-1 3-2.3l.3-1.2V27zM182 31l.2 3.4h-2v-2c-.7 1-2 2.3-4.2 2.3-2 0-4.2-1-4.2-5.4V22h2.2v7c0 2.3.7 4 2.8 4 1.5 0 2.5-1.2 3-2.2V22h2.4v9zM187 28.7c.2 3 2 4.3 4.4 4.3 1.6 0 2.6-.3 3.4-.7l.4 1.6c-.8.3-2.2.7-4 .7-4 0-6.2-2.5-6.2-6.2 0-3.8 2.2-6.6 5.8-6.6 4 0 5 3.4 5 5.7v1H187zm6.7-1.6c0-1.3-.6-3.5-3-3.5s-3.4 2-3.5 3.6h6.5zM81 54.3c-.7.2-1.8.5-3.2.5-3 0-5.5-2-5.5-5.8 0-3.5 2.4-6 6-6 1.3 0 2.2.4 2.6.6l-.5 1.2c-.5-.3-1.3-.5-2.3-.5-2.6 0-4.4 1.7-4.4 4.7 0 2.8 1.6 4.5 4.3 4.5 1 0 2-.2 2.5-.4l.4 1.3zM88.3 52.7v2h-1.2v-1c-.6.5-1.4 1-2.6 1-1.7 0-2.5-1-2.5-2.2 0-2 1.6-3 4.8-3v-.2c0-.7-.2-2-2-2-.6 0-1.4.3-2 .7l-.3-1c.7-.4 1.6-.7 2.7-.7 2.5 0 3 1.7 3 3.3v3zm-1.5-2.2c-1.6 0-3.4.2-3.4 1.8 0 1 .6 1.4 1.4 1.4 1 0 1.7-.7 2-1.3v-2zM90.6 48.7v-2.2H92v1.3c.4-.7 1.3-1.5 2.7-1.5 1 0 2.8.7 2.8 3.5v4.8H96V50c0-1.4-.4-2.5-1.8-2.5-1 0-1.7.7-2 1.5v5.7h-1.6v-6zM105.7 52.7v2h-1.2v-1h-.2c-.4.5-1.3 1-2.5 1-1.6 0-2.5-1-2.5-2.2 0-2 1.8-3 5-3v-.2c0-.7-.3-2-2-2-.7 0-1.5.3-2 .7l-.4-1c.6-.4 1.6-.7 2.6-.7 2.5 0 3 1.7 3 3.3v3zm-1.4-2.2c-1.7 0-3.5.2-3.5 1.8 0 1 .7 1.4 1.4 1.4 1 0 1.8-.7 2-1.3v-2zM115 42.7v9.8c0 .7 0 1.5.2 2H114l-.2-1.3c-.5 1-1.4 1.6-2.8 1.6-2 0-3.5-1.7-3.5-4 0-3 1.7-4.5 3.7-4.5 1.3 0 2 .6 2.4 1.2v-4.8h1.5zm-1.4 7v-.5c-.3-1-1-1.7-2.2-1.7-1.5 0-2.4 1.3-2.4 3s.8 3 2.4 3c1 0 2-.6 2.2-1.7v-2zM123.3 52.7v2h-1.2v-1c-.5.5-1.4 1-2.6 1-1.6 0-2.5-1-2.5-2.2 0-2 1.7-3 4.8-3v-.2c0-.7-.2-2-1.8-2-.8 0-1.6.3-2 .7l-.5-1c.7-.4 1.7-.7 2.7-.7 2.5 0 3 1.7 3 3.3v3zm-1.4-2.2c-1.8 0-3.6.2-3.6 1.8 0 1 .7 1.4 1.4 1.4 1 0 1.8-.7 2-1.3v-2z" fill="#EEE"/>
    </g>
  </g>
</svg>