<svg viewBox="0 0 177 63" xmlns="http://www.w3.org/2000/svg">
    <path fill="#249" d="M75.6 20.8c.8-.2 2-.3 3.4-.3 1.8 0 3 .3 4 1 .6.6 1 1.5 1 2.7 0 1.4-1 2.6-2.3 3.2 1.3.4 3 1.5 3 3.7 0 1.4-.6 2.4-1.3 3-1 1-2.6 1.4-5 1.4-1.2 0-2 0-2.7-.2V20.8zm2 6H79c2 0 3.2-1 3.2-2.5 0-1.7-1.2-2.4-3-2.4h-1.7V27zm0 7H79c2 0 3.7-.6 3.7-2.7 0-2-1.7-2.8-3.7-2.8h-1.5v5.6zM89 21.8c0 .6-.4 1.2-1 1.2-.8 0-1.2-.5-1.2-1.2s.4-1.2 1-1.2c.8 0 1.2.5 1.2 1.2zm-2 13.5V24.7h1.8v10.6H87zM92 19.8h1.7v6.6c.7-1.2 2-2 3.6-2 2.5 0 4.3 2.3 4.3 5.5 0 3.6-2.3 5.5-4.6 5.5-1.5 0-2.7-.6-3.5-2v1.8h-1.7V19.8zM93.6 31v.7c.4 1.4 1.5 2.3 3 2.3 1.8 0 3-1.7 3-4 0-2.2-1-4-3-4-1.4 0-2.5 1-3 2.4V31zM103.8 19.8h2v15.5h-2M109.8 30.3c0 2.7 1.6 3.7 3.5 3.7 1.4 0 2.2-.2 2.8-.5l.5 1.4c-.7 0-1.8.5-3.4.5-3 0-5-2-5-5.3 0-3.2 2-5.7 4.8-5.7 3.4 0 4.2 3 4.2 5v1l-7.2-.2zm5.5-1.3c0-1.2-.5-3-2.6-3-2 0-2.7 1.7-2.8 3h5.3z" />
    <path fill="#6A1" d="M119.3 19.8h2v15.5h-2M125.3 30.3c0 2.7 1.6 3.7 3.5 3.7 1.3 0 2.2-.2 2.8-.5l.4 1.4c-.7 0-1.8.5-3.4.5-3.2 0-5-2-5-5.3 0-3.2 1.8-5.7 4.7-5.7 3.4 0 4.2 3 4.2 5v1l-7.2-.2zm5.4-1.3c0-1.2-.4-3-2.5-3-2 0-2.7 1.7-3 3h5.5zM142 32.7v2.6h-1.6V34h-.2c-.5.8-1.6 1.5-3 1.5-2 0-3.2-1.5-3.2-3 0-2.6 2.2-4 6-4v-.2c0-.8 0-2.4-2.2-2.4-1 0-2 .2-2.7.7l-.3-1.3c1-.5 2-1 3.4-1 3.2 0 4 2.3 4 4.4v4zM140 30c-2 0-4.4.2-4.4 2.3 0 1.2.8 1.8 1.7 1.8 1.4 0 2.2-.8 2.6-1.6V30h.2zM153.6 33.7c0 2.5-.4 4-1.4 5-1 .8-2.4 1-3.7 1-1.2 0-2.6-.2-3.4-.7l.6-1.5c.7.5 1.7.8 3 .8 1.8 0 3.2-1 3.2-3.7v-1c-.5 1-1.7 1.6-3.2 1.6-2.6 0-4.4-2.2-4.4-5 0-3.7 2.3-5.7 4.6-5.7 1.8 0 2.7 1 3.2 1.8v-1.6h1.8v3l-.2 6zm-1.8-4.8v-1c-.5-1-1.3-2-2.7-2-1.7 0-3 1.5-3 4 0 2 1 3.8 3 3.8 1.2 0 2.3-.8 2.6-2l.2-1v-2zM165.2 32.4v3h-1.6v-1.8c-.6.8-1.7 2-3.5 2-1.5 0-3.4-1-3.4-4.7v-6.2h2v5.8c0 2 .5 3.4 2 3.4 1.4 0 2.2-1 2.5-1.8.2-.3.3-.6.3-1v-6.4h2v7.6zM169.3 30.3c0 2.7 1.6 3.7 3.5 3.7 1.3 0 2-.2 2.8-.5l.3 1.4c-.7 0-2 .5-3.5.5-3 0-5-2-5-5.3 0-3.2 1.8-5.7 4.8-5.7 3.3 0 4.2 3 4.2 5v1l-7.2-.2zm5.4-1.3c0-1.2-.5-3-2.6-3-1.8 0-2.6 1.7-2.7 3h5.4z"/>
    <path fill="#249" d="M81.6 52.2c-.4.3-1.3.5-2.4.5-2.7 0-4.6-1.7-4.6-5 0-3 2-5 4.8-5 1.2 0 2 .3 2.3.5l-.4 1c-.4-.3-1-.4-1.8-.4-2.2 0-3.6 1.4-3.6 4 0 2.4 1.2 4 3.4 4 .8 0 1.5-.3 2-.5l.2 1zM87.7 51v1.6h-1v-1c-.5.6-1.2 1-2.2 1-1.3 0-2-1-2-2 0-1.5 1.4-2.5 4-2.5 0-.6-.2-1.6-1.5-1.6-.6 0-1.3.2-1.8.5l-.2-1c.5-.3 1.3-.5 2.2-.5 2 0 2.5 1.4 2.5 2.8V51zm-1-2c-1.5 0-3 .2-3 1.6 0 .8.5 1.2 1.2 1.2.8 0 1.3-.6 1.5-1.2V49zM89.7 47.5v-2h1v1.2c.4-.6 1.2-1.3 2.3-1.3 1 0 2.4.6 2.4 3v4.2h-1.2v-4c0-1.2-.4-2-1.6-2-.8 0-1.4.5-1.6 1.2v4.8h-1.3v-5zM102 51l.2 1.6h-1l-.2-1c-.4.6-1 1-2 1-1.4 0-2-1-2-2 0-1.5 1.3-2.5 4-2.5 0-.6-.3-1.6-1.6-1.6-.7 0-1.3.2-1.8.5l-.2-1c.5-.3 1.3-.5 2.2-.5 2 0 2.5 1.4 2.5 2.8V51zm-1-2c-1.4 0-3 .2-3 1.6 0 .8.6 1.2 1.3 1.2 1 0 1.4-.6 1.6-1.2V49zM110 42.3V52.5h-1l-.2-1.2c-.4.8-1.2 1.4-2.3 1.4-1.6 0-3-1.4-3-3.5 0-2.3 1.5-3.8 3-3.8 1.2 0 1.8.5 2 1h.2v-4h1.2zm-1.3 6V48c-.3-1-1-1.6-1.8-1.6-1.4 0-2 1.2-2 2.7 0 1.5.5 2.7 2 2.7.7 0 1.4-.6 1.7-1.5V48.4zM116.6 51v1.6h-1v-1c-.5.6-1.2 1-2.2 1-1.3 0-2-1-2-2 0-1.5 1.4-2.5 4-2.5 0-.6 0-1.6-1.5-1.6-.7 0-1.4.2-2 .5v-1c.4-.3 1.2-.5 2-.5 2.2 0 2.6 1.4 2.6 2.8V51zm-1-2c-1.4 0-3 .2-3 1.6 0 .8.5 1.2 1.2 1.2 1 0 1.4-.6 1.6-1.2V49z" />
    <path fill="#3C63AE" d="M76.7 11.7h-5c-.7 0-.8 0-.8.8v49c0 1 0 1-1 1-1.2 0-1.2 0-1.2-1.2V12.7c0-1 0-1-1-1h-4.3c-.5 0-.6-.2-.6-.6 0-1.8 0-1.8 1.7-1.8h3.5c.5 0 .6 0 .6-.5v-8h2c0 2.6.2 5.2 0 8 0 .5.3.6 1 .6h5v2.4z" />
    <path d="M76.7 9.3h.5v2.4h-.5V9.3z" fill="#849CD0"/>
    <path d="M12.5 33.3l-1 5.4c-1 5.4-2.2 10.8-3.3 16l-1.5 7.4c0 .7-.3.8-1 .7l-5-1.2c-.5 0-.7-.4-.5-1l2.3-11L6 32c0-.3 0-.7.3-1 .7 0 1.2-.5 1.5-1 .7-1.2 2-1 2.8 0l2 3.3z" fill="#3F64AF"/>
    <path d="M63 49V52c-.4-.6-.5-1.3-1-1.8 0 0-.2-.4-.4-.3-.3.2 0 .4 0 .6-.2.2 0 .4-.3.5-.2 0-.4 0-.5-.2l-.2-.3c-.7-1-1-1-1.7 0-.8.5-1 1.4-2 1.6l-.4.8-.3 1.4c0 1.8.6 2.2 2 1.4h.3c.8-.4 1.6-.3 2.2.4.5.8 1.3 1 2.2.6V62c0 .4 0 .5-.4.5h-8c-.4 0-.6 0-.6-.5V47.5v-.2c.2 0 .3.2.4.3 0 .2.3.4.6.2.2-.2 0-.4 0-.6l-1-1v-.6c.3 0 .4.4.7.2.2-.2.2-.5 0-.8 0-.5-.4-1-.5-1.4 0-.2-.4-.6.2-.6 0 .2.2.5.4.4.3 0 0-.3.2-.5v-1.3c.2-.5 0-1.2.7-1.4 1-.3 1.4-1.2 2-2 .5-.3.5-.7 0-1l-.7-1.4c0-.5 0-1 .3-1 .4-.4.6 0 1 0 0 .4.3.8.5 1.2 0 0 0 .4.3.3.4 0 .3-.3.3-.5 0-.8 0-1.7 1-2 .3 0 .5-.4.5-.7l.4-1c.3-.5.3-1-.3-1.3-.4-.3-.4-.5 0-.8.6-.4 1.2-.7 2-.7v18.8c-.4-.4-.6-1-1.2-1s-1.3-.2-1.8-.8h-.4v.3c.3.4.5.8.8 1 .7.8 1.5 1.4 2.6 1zm-5.7-3.7c0-.4 0-.8-.4-.7-.8.2-1 1-1 1.4-.2.4 0 .8.2 1 .2.3.5.4.7 0 0-.6.2-1.2.3-1.7z" fill="#3C63AE"/>
    <path d="M37 34v-2.7c.8-.4 1.5-.5 2.3-.5 1 0 1.2-.4 1-1.3-.2-.3-.4-.5-.2-1 .2 0 .4-.5 0-.6-.3-.3-.6 0-.8.3l-.2.7c0 .8 0 1-1 1-.2-.2-.5-.3-1-.3v-1.4l2-1.3c1-1 2.7-1 3.8.2-.2.2-.7.3-.5.7.3.3.6 0 1 0l2.4-1V38c-.3 0-.5-.2-.7 0-.4 0-.7.2-.5.6.2.5.6 1 1 1v1.7l-1 1.2c0 .5-.3.4-.6 0-.5-.5-1-1.2-1.2-2 0-.3-.3-.7-.4-1 0-.3-.2-.5-.4-.4-.2 0-.2.2-.2.4-.2 1.5.8 3.4 2.2 4 1 .6 1 .8.3 1.6-.8 1.2-1.5 2.4-1.2 4 0 .4.2 1 0 1.5-.5 1.8-1.2 3.5-2.4 5-.3.4-.7 1-1.3 1-.6-.3-.6-1-.7-1.5-.2-1.7 0-3.4 0-5 0-.8-.2-1.4-.7-2-.4-.4-.5-1-.5-1.4 0-.5 0-1-.4-1.5v-9.3c.5 0 .8 0 1 .5 0 .4.2.7.6.8 1 .5 2.2.5 3.4 0 .5 0 .6-.7.2-1-.5-.7-1-1-2-1-.3 0-.5 0-.7-.4-.2-.4-.5-.8-1-1 0 0-.3-.3-.4 0v.4l.5.8c0 .2.3.4 0 .6-.2.2-.4 0-.6-.2-.4-.3-.5-1-1-1z" fill="#84C442"/>
    <path d="M31.3 23v-3c0-.5 0-.6.4-.7.8-.4 1.6-.4 2.4-.2 1 .3 1 .4 1 1.4V34c-.4 0-1 .2-.8 1 0 .5.2.8 1 .7v1c-1 0-1.5.7-2 1.4-.4 1-.5 2.3-.6 3.4-.3 2 .4 2.6 2.4 3V62c0 .4 0 .5-.3.5H32c-.6 0-.7 0-.7-.8V27.3v-1c.6 0 .8-.3 1-.8v-1c.2-1.3.2-1.3-1-1.5zM22 28.7v-4-.4c.7 0 1-.6 1.7-.6 0 .4-.3.3-.5.5 0 0-.4 0-.4.3 0 .2.3.2.4.2.7 0 1.3.2 2 .3 1 .2 1.5.8 1.3 2v1c0 .3 0 .8.6 1 .5 0 .8-.2 1.2-.4l1-.8v20.5c0-.3-.3-.4-.5-.5-1-.7-1.8-1.5-2.4-2.6-1-1.6-2.5-2.2-4.2-2V35c.8-.6 1.3-1.4 2.3-1.5.2 0 .5-.3.4-.5 0-.3-.4-.4-.6-.4-.2 0-.5.2-1 0 .7-.4 1.4-.6 2-.7.5-.2.6-.4.5-.8l-.7-1.6c-.2-.5-.6-.7-1-.2-.5.3-.6 0-.7-.2-.2-.4-.5-.5-1-.5zM37 45c.6.3.5 1 .5 1.4 0 .5.2 1 .5 1.4.4.6.6 1.2.6 2 0 1.6-.2 3.3 0 5 .2.5 0 1.2.7 1.4.7.2 1-.4 1.3-1 1.3-1.4 2-3 2.5-5 .2-.4.2-1 0-1.5 0-1.5.5-2.7 1.4-4 .6-.7.5-1-.4-1.4-1.3-.7-2.3-2.6-2.2-4 0-.3 0-.5.2-.5s.3 0 .4.3l.5 1.3c0 .7.5 1.4 1 2 .2.3.4.4.6 0 .2-.6.6-1 1-1.2V62c0 .5 0 .7-.6.7h-7.3c-.4 0-.6 0-.6-.5V45zm8 6c.2-.3 0-.7-.3-.8-.5 0-.5.4-.5.7-.2.5-.4 1.3-.4 2 0 0 0 .4.2.4s.3 0 .4-.2c.4-.7.7-1.4.7-2z" fill="#3C63AE"/>
    <path d="M52 40.2v.7c0 6.8 0 13.8.2 20.7 0 .6 0 .8-.8.8h-3.2c-.4 0-.6 0-.6-.5V39.3c.7.3 1 1 1.2 1.7l.6 2.2c0 .3 0 .7.5.7.3-.2.2-.6.3-.8.3-1.2 1-2.2 1.8-3z" fill="#3F64AF"/>
    <path d="M63 29.5c-.7 0-1.4.3-2 .8-.4.2-.4.5 0 .7.5.4.5.8.2 1.3-.2.3-.2.7-.3 1l-.6.7c-1 .3-1 1.2-1 2 0 .2 0 .5-.3.6l-.2-.4c-.2-.4-.3-.8-.6-1-.2-.3-.5-.6-1-.3-.3 0-.3.5-.2 1l.8 1.2c.4.4.4 1 0 1.2-.7.7-1 1.7-2 2-.7 0-.6.8-.7 1.4V43s0 .4-.2.4-.3-.2-.4-.4c-.2-.2-.3-.4-.3-.7V25.5c0-.3 0-.6.4-.7.4 0 .7 0 1-.2.4 0 1 0 1 .2.2.3-.3.5-.4.7.3.3.6.2 1 .2.5 0 1 0 1.6.2.7.4 1.5.2 2.4 0 .6 0 1.3-.2 2 0v3.5z" fill="#86C443"/>
    <path d="M63 26c-.7-.3-1.4 0-2 0-.8.2-1.7.3-2.4-.2-.5-.3-1 0-1.7 0-.4 0-.7 0-1-.3 0-.3.6-.4.5-.7-.2-.3-.7-.2-1-.2H54v-2-4.7c0-.6.2-1 .7-1 2.5-1 5-1 7.6 0 .5.2.7.4.7 1v8z" fill="#3C63AE"/>
    <path d="M22 43.3c1.8-.3 3.3.3 4.3 2 .6 1 1.4 1.8 2.4 2.5.2 0 .4.2.6.4V50c-.6 1-1 2.2-1.8 3.2-.5.5-.8 1-1 1.7-.5.7-1 1.5-1.6 2-.6.5-.8 1-.8 1.5s0 1-.2 1.3c-.2.8 0 1.5-.3 2.3-.8-.8-1-1.8-1.3-2.7 0-1.7 0-3.5.4-5.2.5-1.4.2-2.7-.7-3.8v-7z" fill="#85C442"/>
    <path d="M20 43v18.7c0 .6-.2.8-.7.7h-1.7c-.7 0-1 0-1-.8V44.3c0-1 0-2.3.2-3.4.4.2.7.8 1.3 1 .8 0 1.3.5 2 1z" fill="#4367B1"/>
    <path d="M52 40.2c-.8.8-1.4 1.8-1.7 3 0 .2 0 .6-.4.7-.5 0-.5-.5-.6-.8l-.7-2.2c0-.7-.4-1.4-1-1.8-.2-1 0-2.2 0-3.3v-7c0-.7 0-1 .6-1 1.2-.3 2.3-.3 3.4 0 .3 0 .5.2.5.5v11.7z" fill="#86C443"/>
    <path d="M45.7 27l-2.4 1c-.4 0-.7.4-1 0-.2-.5.3-.6.5-.8-1-1.2-2.8-1.3-4-.2-.4.5-1 1-1.7 1.3v-5.8c0-.4.3-.5.5-.6 2.6-1 5.2-1 7.8 0 .3 0 .4.2.4.5V27zM22.4 59.3c.3 1 .5 2 1.3 2.8.3-.7 0-1.5.3-2.2v-1.3c.2-.5.4-1 1-1.4.6-.5 1-1.3 1.4-2.2l1-1.7c.8-1 1.3-2 1.8-3v12c0 .4 0 .5-.5.5H22v-.2-2.8l.4-.2z" fill="#3C63AE"/>
    <path d="M20 43c-.7-.5-1.2-1-2-1-.5-.2-.8-.7-1.2-1V27c.2 0 .4-.3.7 0 .4 0 .6 0 .6-.6l.3-.6c0-.3.2-.6.5-.7.2 0 .3.4.4.7l.3.7c0 .3.3.3.5.2.2.3 0 .6 0 1-1.5.5-1 1.5-.4 2.4l.4.4c.2 1.8 0 3.7 0 5.6 0 .5.2 1 0 1.4-1 0-1.5.3-1.8 1.4-.2.8 0 1 1 1.6.2 0 .5.4.8.6V43z" fill="#85C345"/>
    <path d="M20 27c-.2 0-.4 0-.5-.3 0-.3-.2-.5-.3-.7 0-.3-.2-.7-.5-.7s-.4.4-.5.7v.6c0 .5-.3.6-.7.5h-.8V15c0-.4 0-.6.5-.8.5-.3 1-.3 1.7-.2.8 0 1 .4 1 1.3V27z" fill="#3F64AF"/>
    <path d="M7.3 26c0-1.5.6-3 1-4.6 0-.2 0-.3.2-.4 1.7-.7 5 0 6 1.3.2 0 .3.2.3.5-.4 1.3-.5 2.6-1 4-2.2-.3-4.3-.7-6.5-.7z" fill="#4066AF"/>
    <path d="M63 56.6c-1 .3-1.6.2-2.2-.6-.6-.7-1.4-.8-2.2-.5h-.2c-1.5 1-2 .5-2-1.3 0-.5 0-1 .2-1.4 0-.3 0-.6.4-.7 1 0 1.2-1 2-1.6.7-.8 1-.8 1.6 0 0 .2 0 .3.2.4 0 .2.3.3.5.3s0-.2.2-.4c0-.2-.2-.4 0-.5.3 0 .4.3.5.4.5.5.6 1.2 1 1.8v4.4z" fill="#84C442"/>
    <path d="M7.3 26c2.2 0 4.4.5 6.5.7v.5l-1.2 6v.2l-2-3.3c-.8-1-2-1-2.8 0-.3.6-.8 1-1.5 1 0-1 .3-2 .5-2.8 0-.8 0-1.5.5-2z" fill="#81C249"/>
    <path d="M29.2 27.8c-.4 0-.7.5-1 .8-.4.2-.7.5-1 .3-.6-.2-.7-.7-.8-1.2v-1c.3-1 0-1.6-1.2-1.8-.7 0-1.3-.2-2-.3 0 0-.3 0-.4-.2 0-.3.3-.3.4-.3.2-.2.6 0 .5-.5 1.8-.6 3.6-.4 5.3.5l.3.6v3z" fill="#85C442"/>
    <path d="M35 44.5c-2-.5-2.7-1-2.5-3 .2-1.2.3-2.4.8-3.4.4-.6 1-1.3 1.8-1.4v8z" fill="#84C442"/>
    <path d="M22 28.7c.5 0 .8 0 1 .6.2.2.4.4.7 0 .5-.4 1-.2 1.2.3l.5 1.6c0 .4 0 .6-.4.7-.6 0-1.3.2-1.8.7.3.2.6 0 1 0 .2 0 .5 0 .5.3s0 .5-.4.6c-1 0-1.5 1-2.2 1.5v-6.3z" fill="#85C345"/>
    <path d="M37 34c.5.3.6 1 1 1 0 .3.3.6.6.4.2-.2 0-.5 0-.6L38 34v-.6c.2 0 .4 0 .6.2.4.2.7.6 1 1 0 .4.3.5.7.4.8 0 1.4.3 2 .8.3.5.2 1-.3 1.2-1.2.4-2.3.4-3.4 0-.4 0-.6-.5-.7-.8-.2-.4-.5-.6-1-.5V34z" fill="#3C63AE"/>
    <path d="M22.4 59.3l-.4.2V50c1 1.3 1.3 2.6.8 4-.6 1.8-.5 3.5-.4 5.3z" fill="#537BB7"/>
    <path d="M37 29.7l1 .2c1 0 1-.2 1-1 0-.2 0-.5.2-.7.2-.3.4-.5.8-.4.4 0 .2.4 0 .6 0 .4 0 .6.2 1 .3.8 0 1.3-1 1.3-.7 0-1.4 0-2 .3v-1.6z" fill="#3C63AE"/>
    <path d="M20 41.4l-1-.6c-1-.5-1-.8-.8-1.6.2-1 .8-1.4 1.7-1.4v3.6z" fill="#3F6CAF"/>
    <path d="M54 24.7h.5c-.3.2-.3.5-.3.8v16.8c0 .3 0 .5.3.7-.6 0-.3.4-.3.6L55 45c0 .3 0 .6-.2.8-.3.2-.5 0-.6-.2-.2-1 0-2 0-3V25.4v-.7z" fill="#81C249"/>
    <path d="M63 49c-1 .2-2-.4-2.6-1l-.7-1c0-.3-.2-.4 0-.5h.3c.5.6 1.2.7 2 .8.4 0 .6.7 1 1v.6z" fill="#7FC145"/>
    <path d="M31.3 23c1.2.2 1.2.2 1 1.4v1c-.2.6-.4 1-1 1V23z" fill="#85C345"/>
    <path d="M20 30.8l-.4-.4c-.7-1-1.2-2 .4-2.5v2.8z" fill="#3F6CAF"/>
    <path d="M45.7 39.5c-.6 0-1-.6-1.2-1-.2-.5 0-.7.5-.8.3 0 .5 0 .7.2v1.5z" fill="#4066AF"/>
    <path d="M35 35.7c-.6.2-.8-.2-.8-.8 0-.8.4-1 1-1v1.7z" fill="#7FC145"/>
    <path d="M54 46c.4.5.7 1 1 1.2 0 .2.2.4 0 .6-.3.2-.4 0-.6-.2l-.3-.3V46z" fill="#81C249"/>
    <path d="M22 62.3l.5.5c-.4 0-.6 0-.5-.5z" fill="#537BB7"/>
    <path d="M57.3 45.3c0 .5-.2 1-.4 1.6-.3.4-.5.3-.8 0-.3-.2-.4-.6-.3-1 0-.5.2-1.2 1-1.4.3 0 .3.3.3.7zM45 51c0 .8-.2 1.6-.6 2.2 0 0-.2.3-.4.2-.3 0-.2-.3-.2-.5 0-.8 0-1.5.3-2.2.2-.2.2-.7.7-.6.4 0 .5.5.4 1z" fill="#7FC145"/>
</svg>